<svg xmlns="http://www.w3.org/2000/svg" viewBox="0 0 300 300">
  <defs>
    <style>
      .a{fill:#231f20}
    </style>
  </defs>
  <path class="a" d="M289 289H11V11h278zm-271-7h264V18H18z"/>
  <path class="a" d="M261 116a8 8 0 0 1 3 3 8 8 0 0 1 1 4 10 10 0 0 1-1 5 22 22 0 0 1-3 5 95 95 0 0 1-7 6h12l-1 5h-18v-4l7-8a29 29 0 0 0 4-4 7 7 0 0 0 1-4 4 4 0 0 0-1-3 4 4 0 0 0-3-1 6 6 0 0 0-3 1 8 8 0 0 0-2 2l-4-3a12 12 0 0 1 4-3 12 12 0 0 1 6-2 12 12 0 0 1 5 1zM70 174q-8 7-20 7H35v-61h14q13 0 21 6t8 24q0 17-8 24zm-7-43q-4-4-12-4h-7v47h7a17 17 0 0 0 12-6q5-5 5-18 0-14-5-19zM109 181a31 31 0 0 1-7 13q-5 5-14 6l-1-7a25 25 0 0 0 7-2 13 13 0 0 0 4-4 25 25 0 0 0 3-6h-3l-16-47h9l13 40 13-40h9z"/>
  <path class="a" d="M142 169q0 6 8 6a21 21 0 0 0 7-2l2 6a25 25 0 0 1-11 3q-7 0-11-4t-3-10v-46h-15v-7h23zM199 174a5 5 0 0 0 3 2l-2 6q-7-1-9-7a16 16 0 0 1-6 5 21 21 0 0 1-9 2q-7 0-11-4a14 14 0 0 1-4-11 13 13 0 0 1 6-11q6-4 16-4h7v-3c0-3-1-6-3-7l-8-2a37 37 0 0 0-12 2l-2-6a46 46 0 0 1 15-3q9 0 14 4t4 11v22a7 7 0 0 0 1 4zm-14 0a14 14 0 0 0 5-5v-11h-6q-7 0-11 2a8 8 0 0 0-3 7 8 8 0 0 0 2 6q2 2 7 2a13 13 0 0 0 6-1zM207 134h7l1 6a20 20 0 0 1 15-7q7 0 10 3t3 11v34h-8v-29a39 39 0 0 0-1-7 6 6 0 0 0-2-4 8 8 0 0 0-5-2 12 12 0 0 0-6 3 21 21 0 0 0-6 5v34h-8z"/>
</svg>
